<?xml version="1.0" encoding="utf-8"?>
<!-- Generator: Adobe Illustrator 25.3.1, SVG Export Plug-In . SVG Version: 6.00 Build 0)  -->
<svg version="1.1" id="Camada_1" xmlns="http://www.w3.org/2000/svg" xmlns:xlink="http://www.w3.org/1999/xlink" x="0px" y="0px"
	 viewBox="0 0 520 180" style="enable-background:new 0 0 520 180;" xml:space="preserve">
<style type="text/css">
	.st0{fill-rule:evenodd;clip-rule:evenodd;fill:#FFFFFF;}
	.st1{fill:#7A69AE;}
</style>
<g>
	<path class="st0" d="M461.8,109.4h4.2V98.7l10.7-10.8l17.4,21.5h5.4l-19.9-24.5l19.3-19.5h-5.6L466,93.6V46.3h-4.2V109.4z
		 M408.9,109.4h4.2V83.9c0-9.2,6.7-15.7,15.3-15.7c9,0,14,6,14,15v26.2h4.2V82.4c0-10.6-6.5-18.1-17.6-18.1c-8,0-12.9,4.1-15.9,9.2
		v-8.2h-4.2V109.4z M372.9,106.5c-6.7,0-12.8-3.7-12.8-10.1v-0.2c0-6.2,5.2-10.3,14.5-10.3c6.3,0,11.2,1,14.9,2v5
		C389.6,100.9,381.9,106.5,372.9,106.5z M372.7,110.4c8.4,0,13.8-4.2,16.8-8.4v7.3h4.1V81.9c0-5.3-1.5-9.4-4.5-12.4
		c-3.2-3.2-7.9-4.8-13.9-4.8c-6.1,0-10.8,1.5-15.6,3.8l1.6,3.7c4.1-2.1,8.4-3.5,13.8-3.5c9.1,0,14.5,4.5,14.5,13.5V84
		c-4.2-1.1-8.4-1.9-14.6-1.9c-11.4,0-19.3,5.1-19.3,14.3v0.2C355.7,105.9,364.5,110.4,372.7,110.4z M324.2,106.4
		c-9.2,0-18-7.6-18-18.9v-0.2c0-11.2,8.7-18.9,18-18.9c9.3,0,17.3,7.4,17.3,19v0.2C341.5,99.3,333.9,106.4,324.2,106.4z
		 M324.6,110.4c10.6,0,21.4-8.8,21.4-23.1v-0.2c0-14.3-10.8-22.9-21.4-22.9c-8.7,0-14.4,5.1-18.1,10.9V46.3h-4.2v63h4.2v-9.5
		C310.2,105.4,315.8,110.4,324.6,110.4z M266.1,101.2c-4.2,0-7.2-2.1-7.2-5.6v-0.2c0-4.1,3.5-6.4,9.1-6.4c3.2,0,6,0.7,8.4,1.7v2.3
		C276.4,97.9,272.3,101.2,266.1,101.2z M262.1,110.3c6.5,0,10.8-2.3,14-5.9v5h12.7V82.5c0-6.2-1.6-11.3-5-14.8
		c-3.4-3.4-8.4-5.2-15.6-5.2c-7.9,0-12.9,1.6-18,3.7l3.3,10c4.2-1.6,7.7-2.5,12.8-2.5c6.6,0,9.9,2.9,9.9,8.5V83
		c-3.4-1.1-6.6-1.9-11.3-1.9c-11,0-18.7,4.8-18.7,14.8v0.2C246.2,105.3,253.4,110.3,262.1,110.3z M215.1,109.4h13.1V92.3
		c0-11.1,5.4-16.3,14.1-16.3h0.7V62.2c-7.9-0.3-12.1,3.9-14.8,10.2v-9.3h-13.1V109.4z M181,101.2c-4.2,0-7.2-2.1-7.2-5.6v-0.2
		c0-4.1,3.5-6.4,9.1-6.4c3.2,0,6,0.7,8.4,1.7v2.3C191.3,97.9,187.2,101.2,181,101.2z M177.1,110.3c6.5,0,10.8-2.3,14-5.9v5h12.7
		V82.5c0-6.2-1.6-11.3-5-14.8c-3.4-3.4-8.4-5.2-15.6-5.2c-7.9,0-12.9,1.6-18,3.7l3.3,10c4.2-1.6,7.7-2.5,12.8-2.5
		c6.6,0,9.9,2.9,9.9,8.5V83c-3.4-1.1-6.6-1.9-11.3-1.9c-11,0-18.7,4.8-18.7,14.8v0.2C161.2,105.3,168.3,110.3,177.1,110.3z
		 M121.8,79.4V60.9h10.3c6.7,0,10.8,3.2,10.8,9.2v0.2c0,5.2-3.9,9.2-10.5,9.2H121.8z M108.5,109.4h13.3V91.3h10.1
		c13.6,0,24.4-7.2,24.4-21.2v-0.2c0-12.4-8.7-20.9-23.1-20.9h-24.7V109.4z"/>
	<rect x="509" y="98.2" class="st1" width="11" height="11"/>
	<polygon class="st1" points="41.5,115.5 55.8,115.5 105.2,22.5 87,22.5 37,115.5 	"/>
	<path class="st1" d="M55.6,136c-0.6,5.6-1.1,11.2-1.7,16.7C27.1,151.4,0.1,129.4,0,97c-0.1-32.1,26.6-54.9,54.4-55.9
		c0.1,0.4,0.2,0.8,0.2,1.2c0.4,5.1,0.8,10.3,1.2,15.4C30.7,59.6,17.2,80,17.5,97.4C17.8,114.3,30.6,133.7,55.6,136"/>
	<path class="st0" d="M497.4,152.4h1.6v-23.1h-1.6V152.4z M483.9,151.3c-2.5,0-4.7-1.4-4.7-3.7v-0.1c0-2.3,1.9-3.8,5.3-3.8
		c2.3,0,4.1,0.4,5.5,0.7v1.8C490.1,149.3,487.2,151.3,483.9,151.3z M483.8,152.7c3.1,0,5.1-1.6,6.2-3.1v2.7h1.5v-10.1
		c0-1.9-0.5-3.5-1.6-4.6c-1.2-1.2-2.9-1.8-5.1-1.8c-2.2,0-4,0.5-5.7,1.4l0.6,1.4c1.5-0.8,3.1-1.3,5.1-1.3c3.3,0,5.3,1.6,5.3,4.9v0.7
		c-1.6-0.4-3.1-0.7-5.4-0.7c-4.2,0-7.1,1.9-7.1,5.3v0.1C477.6,151.1,480.8,152.7,483.8,152.7z M471.6,152.6c1,0,1.8-0.2,2.6-0.6
		v-1.5c-0.9,0.4-1.6,0.6-2.4,0.6c-1.9,0-3.2-0.8-3.2-3.1v-10.4h5.7v-1.4h-5.7V131h-1.6v5.2h-2.3v1.4h2.3v10.6
		C467.1,151.3,469.1,152.6,471.6,152.6z M458.6,152.4h1.6v-16.2h-1.6V152.4z M458.4,132h1.9v-2.1h-1.9V132z M444.3,149.7
		c-3.3,0-6.2-2.5-6.2-6.2v-0.1c0-3.8,2.8-6.1,6.2-6.1c3.4,0,6.7,2.4,6.7,6.1v0.1C451,147.2,447.7,149.7,444.3,149.7z M444.5,157.5
		c2.4,0,4.5-0.8,5.9-2.2c1.3-1.3,2.1-3.1,2.1-5.5v-13.7h-1.6v3.2c-1.4-1.9-3.5-3.6-6.8-3.6c-3.9,0-7.8,3-7.8,7.7v0.1
		c0,4.6,3.9,7.6,7.8,7.6c3.2,0,5.3-1.7,6.8-3.7v2.3c0,4.2-2.7,6.3-6.3,6.3c-2.4,0-4.6-0.8-6.5-2.3l-0.9,1.3
		C439.3,156.7,441.8,157.5,444.5,157.5z M429.8,152.4h1.6v-16.2h-1.6V152.4z M429.6,132h1.9v-2.1h-1.9V132z M415.6,151.3
		c-3.4,0-6.3-2.7-6.3-7v-0.1c0-4.3,2.8-6.9,6.3-6.9c3.4,0,6.6,2.8,6.6,6.9v0.1C422.2,148.4,419,151.3,415.6,151.3z M415.4,152.7
		c3.2,0,5.2-1.9,6.7-4v3.6h1.6v-23.1h-1.6v10.5c-1.4-2-3.4-3.9-6.7-3.9c-3.9,0-7.9,3.2-7.9,8.5v0.1
		C407.6,149.6,411.5,152.7,415.4,152.7z M386,151.3c-3.7,0-6.7-3.1-6.7-7v-0.1c0-3.8,2.8-6.9,6.6-6.9c3.7,0,6.7,3.1,6.7,7v0.1
		C392.6,148.1,389.9,151.3,386,151.3z M386,152.7c4.8,0,8.3-3.9,8.3-8.5v-0.1c0-4.5-3.5-8.4-8.3-8.4c-4.8,0-8.3,3.9-8.3,8.5v0.1
		C377.7,148.9,381.2,152.7,386,152.7z M368.3,152.7c2.9,0,4.9-1.3,6.6-3.2l-1.1-1c-1.4,1.5-3.1,2.7-5.4,2.7c-3.7,0-6.7-3.1-6.7-7
		v-0.1c0-3.9,2.9-6.9,6.5-6.9c2.4,0,4,1.2,5.4,2.7l1.1-1.1c-1.5-1.6-3.4-3-6.5-3c-4.7,0-8.2,3.9-8.2,8.5v0.1
		C360.1,148.9,363.6,152.7,368.3,152.7z M341.7,152.4h1.6V143c0-3.4,2.4-5.8,5.6-5.8c3.3,0,5.1,2.2,5.1,5.5v9.6h1.6v-9.9
		c0-3.9-2.4-6.7-6.5-6.7c-2.9,0-4.7,1.5-5.8,3.4v-3h-1.6V152.4z M328.5,151.3c-2.5,0-4.7-1.4-4.7-3.7v-0.1c0-2.3,1.9-3.8,5.3-3.8
		c2.3,0,4.1,0.4,5.5,0.7v1.8C334.7,149.3,331.8,151.3,328.5,151.3z M328.4,152.7c3.1,0,5.1-1.6,6.2-3.1v2.7h1.5v-10.1
		c0-1.9-0.5-3.5-1.6-4.6c-1.2-1.2-2.9-1.8-5.1-1.8c-2.3,0-4,0.5-5.7,1.4l0.6,1.4c1.5-0.8,3.1-1.3,5.1-1.3c3.3,0,5.3,1.6,5.3,4.9v0.7
		c-1.6-0.4-3.1-0.7-5.4-0.7c-4.2,0-7.1,1.9-7.1,5.3v0.1C322.2,151.1,325.4,152.7,328.4,152.7z M310.7,151.3c-3.4,0-6.6-2.8-6.6-6.9
		v-0.1c0-4.1,3.2-6.9,6.6-6.9c3.4,0,6.3,2.7,6.3,7v0.1C317,148.7,314.2,151.3,310.7,151.3z M310.8,152.7c3.9,0,7.9-3.2,7.9-8.5v-0.1
		c0-5.3-4-8.4-7.9-8.4c-3.2,0-5.3,1.9-6.7,4v-10.6h-1.6v23.1h1.6v-3.5C305.5,150.9,307.6,152.7,310.8,152.7z"/>
</g>
</svg>
